<svg width="606" height="149" viewBox="0 0 606 149" fill="currentColor" xmlns="http://www.w3.org/2000/svg" class="[&amp;_path]:transition-[d] [&amp;_path]:duration-[3s] block h-full w-full object-contain" aria-label="Suno Logo"><g fill-rule="evenodd" clip-rule="evenodd"><path d="M61.4512,148.002C49.5956,148.002 38.3407,146.172 27.6689,142.512C16.9971,138.851 7.77415,133.183 0,125.489C3.5337,118.583 7.0674,111.677 10.6011,104.771C18.2693,111.256 26.5028,116.125 35.3017,119.359C44.1007,122.611 54.1364,124.21 65.3912,124.21C74.3669,124.21 81.2046,122.593 85.8691,119.359C90.5336,116.107 92.8835,111.434 92.8835,105.304C92.8835,99.7952 90.1625,95.7794 84.7029,93.3273C79.261,90.8574 67.7235,88.121 50.1256,85.1181C33.2345,82.4705 21.3083,78.1882 14.3645,72.2356C7.42078,66.283 3.94008,57.3808 3.94008,45.4756C3.94008,32.6287 8.74592,21.9673 18.3223,13.5093C23.7829,8.70541 29.83,7.5 34.33,7.5C38.83,7.5 49.5528,14.5 57.5,14.5C63.0018,14.5 70,13.5 75.5,9C81,4.5 87.1545,4.46759 92.3004,6.33063C102.424,9.99103 110.428,15.0552 116.294,21.5586C113.17866666666666,28.162733333333332 110.06333333333333,34.766866666666665 106.948,41.371C99.7565,35.9159 92.2297,31.758 84.3849,28.8972C76.5401,26.0541 68.3596,24.6149 59.861,24.6149C51.9455,24.6149 45.7262,26.0364 41.1677,28.8616C36.6092,31.6869 34.33,36.0581 34.33,41.9751C34.33,47.519 37.1216,51.4993 42.6872,53.9158C45.8963,55.3092 51.1672,56.8267 58.5,58.4614C63.8845,59.6617 70.3808,60.9254 77.9889,62.2495C87.1465,63.8316 94.8149,65.9022 101,68.4643C106.068,70.5636 110.14,72.9929 113.22,75.7538C120.058,81.8664 123.468,90.8752 123.468,102.763C123.468,117.049 117.973,128.154 107.018,136.079C102.168,139.582 96.4964,142.311 90,144.266C81.7998,146.733 72.2856,148.002 61.4512,148.002"></path><path d="M165.456,135.546C170.458,140.232 178.495,143.675 188.131,145.879C196.702,147.839 206.538,148.819 216.628,148.819C216.63866666666667,148.819 216.64933333333332,148.819 216.66,148.819C226.752,148.819 236.587,147.839 245.157,145.878C254.788,143.674 262.823,140.231 267.832,135.546C273.041,130.665 276.814,124.309 279.152,116.482C281.056,110.108 282.008,103 282.008,94.4341C282.008,85.8682 282.008,64 282.008,52.5C282.008,41 282.008,36 282.008,27.485C282.008,18.97 282.008,2.47 282.008,2.47C271.77233333333334,2.47 261.53666666666663,2.47 251.301,2.47C251.301,2.47 251.301,18.97 251.301,27.485C251.301,36 251.301,41 251.301,52.5C251.301,64 251.301,80.3038 251.301,91.9019C251.301,103.5 249.253,111.66 245.157,116.482C241.044,121.304 228.336,123.707 216.644,123.707C204.952,123.707 192.227,121.304 188.131,116.482C184.035,111.66 181.986,103.5 181.986,91.9019C181.986,80.3038 184,54 179,40.5C174,27 177.486,20 180,15C182.514,10 181.986,2.47 181.986,2.47C171.75066666666666,2.47 161.51533333333333,2.47 151.28,2.47C151.28,2.47 152,8 154,12.5C156,17 161.822,33.5 157,51C152.178,68.5 151.28,85.8682 151.28,94.4341C151.28,103 152.231,110.111 154.133,116.482C156.471,124.311 160.245,130.663 165.456,135.546"></path><path d="M314,145.882C322.96866666666665,145.882 331.93733333333336,145.882 340.906,145.882C340.906,135.38566666666668 340.906,124.88933333333334 340.906,114.393C340.906,100.96666666666667 340.906,87.54033333333334 340.906,74.114C340.906,60.68766666666667 340.906,47.26133333333334 340.906,33.835C346.0466666666667,43.1125 351.1873333333333,52.39 356.328,61.6675C361.561,71.1117 367.054,81.0295 372.027,90C377,98.9705 382.322,108.58 387.47,117.87C392.64366666666666,127.20733333333334 397.81733333333335,136.54466666666667 402.991,145.882C402.9963333333333,145.882 403.00166666666667,145.882 403.007,145.882C417.188,145.882 431.369,145.882 445.55,145.882C445.55,135.38566666666668 445.55,124.88933333333334 445.55,114.393C445.55,100.96666666666667 445.55,87.54033333333334 445.55,74.114C445.55,60.68766666666667 445.55,47.26133333333334 445.55,33.835C445.55,23.223333333333336 445.55,12.611666666666668 445.55,2C436.63933333333335,2 427.72866666666664,2 418.818,2C418.818,12.611666666666666 418.818,23.223333333333333 418.818,33.835C418.818,47.26133333333333 418.818,60.68766666666667 418.818,74.114C418.818,87.54033333333334 418.818,100.96666666666667 418.818,114.393C413.64366666666666,105.0269 408.46933333333334,95.66080000000001 403.295,86.2947C398.02000000000004,76.74656666666667 392.745,67.19843333333334 387.47,57.6503C382.396,48.46626666666667 377.322,39.28223333333334 372.248,30.0982C367.07366666666667,20.73213333333333 361.89933333333335,11.366066666666665 356.725,2C342.48333333333335,2 328.2416666666667,2 314,2C314,12.611666666666666 314,23.223333333333333 314,33.835C314,47.26133333333333 314,60.68766666666667 314,74.114C314,87.54033333333334 314,100.96666666666667 314,114.393C314,124.88933333333334 314,135.38566666666668 314,145.882"></path><path d="M490.573,135.564C495.897,140.161 503.844,143.563 513.043,145.769C521.513,147.8 531.044,148.816 540.568,148.816C540.5733333333333,148.816 540.5786666666667,148.816 540.584,148.816C550.236,148.816 555.5,149 561,146.5C566.5,144 565.5,128.062 574,122.5C582.5,116.938 595.253,126.5 600.5,119.5C605.747,112.5 605.948,105.5 605.948,97.9954C605.948,90.4908 605.948,88 605.948,74.7642C605.948,61.5284 605.948,59.066 605.948,51.533C605.948,44 604.813,36.8424 602.543,30.7481C600.005,23.9323 596.048,18.1597 590.675,13.43C585.41,8.79445 577.549,5.36036 568.436,3.12549C559.937,1.04122 550.349,0 540.761,0C531.173,0 521.57,1.04122 513.043,3.12549C503.9,5.36036 495.994,8.79445 490.67,13.43C485.226,18.1539 481.223,23.9266 478.657,30.7481C476.365,36.84 475.22,44 475.22,51.533C475.22,59.066 475.22,61.5284 475.22,74.7642C475.22,88 475.22,90.4908 475.22,97.9954C475.22,105.5 476.326,112.284 478.541,118.229C481.087,125.064 485.097,130.842 490.573,135.564M564,118.229C558,123.458 550.636,124.855 540.568,124.855C530.5,124.855 517.216,122.652 512.7,118.229C508.184,113.807 505.927,106 505.927,95.4519C505.927,84.9038 505.927,88 505.927,74.7642C505.927,61.5284 505.927,65.153 505.927,54.0765C505.927,43 508.184,35.2842 512.7,30.7481C517.216,26.212 529.73,23.944 540.568,23.944C551.405,23.944 563.92,26.1958 568.436,30.7481C572.951,35.3004 575.209,43.5 575.209,54.0765C575.209,64.653 575.209,61.5284 575.209,74.7642C575.209,88 575.209,84.9038 575.209,95.4519C575.209,106 570,113 564,118.229"></path></g></svg>